<mxfile host="app.diagrams.net" modified="2023-05-08T13:05:00.983Z" agent="Mozilla/5.0 (Windows NT 10.0; Win64; x64) AppleWebKit/537.36 (KHTML, like Gecko) Chrome/112.0.0.0 Safari/537.36" etag="O97yB3Z-t-8uRVSGKe_m" version="21.2.9" type="device">
  <diagram name="Page-1" id="bCAl37fwIDvj_ZqM9r9M">
    <mxGraphModel dx="2109" dy="679" grid="1" gridSize="10" guides="1" tooltips="1" connect="1" arrows="1" fold="1" page="1" pageScale="1" pageWidth="850" pageHeight="1100" math="0" shadow="0">
      <root>
        <mxCell id="0" />
        <mxCell id="1" parent="0" />
        <mxCell id="_vuAa1aMIuxWL2abwS94-5" value="Οθόνη Ιστορικού Ξεναγήσεων" style="shape=umlBoundary;whiteSpace=wrap;html=1;fontStyle=1;" parent="1" vertex="1">
          <mxGeometry x="90" y="10" width="100" height="80" as="geometry" />
        </mxCell>
        <mxCell id="_vuAa1aMIuxWL2abwS94-7" value="" style="endArrow=classic;html=1;rounded=0;exitX=0.5;exitY=0.5;exitDx=0;exitDy=0;exitPerimeter=0;entryX=-0.01;entryY=0.55;entryDx=0;entryDy=0;entryPerimeter=0;fontStyle=1;" parent="1" source="_vuAa1aMIuxWL2abwS94-1" target="_vuAa1aMIuxWL2abwS94-5" edge="1">
          <mxGeometry width="50" height="50" relative="1" as="geometry">
            <mxPoint x="260" y="290" as="sourcePoint" />
            <mxPoint x="310" y="240" as="targetPoint" />
          </mxGeometry>
        </mxCell>
        <mxCell id="_vuAa1aMIuxWL2abwS94-8" value="&lt;font style=&quot;font-size: 12px;&quot;&gt;Επιλογή Δημιουργίας &lt;br&gt;Νέας Ξενάγησης&amp;nbsp;&lt;/font&gt;" style="edgeLabel;html=1;align=center;verticalAlign=middle;resizable=0;points=[];fontStyle=1;" parent="_vuAa1aMIuxWL2abwS94-7" vertex="1" connectable="0">
          <mxGeometry x="-0.2228" y="1" relative="1" as="geometry">
            <mxPoint x="18" y="-83" as="offset" />
          </mxGeometry>
        </mxCell>
        <mxCell id="_vuAa1aMIuxWL2abwS94-1" value="&lt;span style=&quot;background-color: rgb(230, 230, 230);&quot;&gt;Ξεναγός / &lt;br&gt;Πολιτιστικός Οργανισμός&lt;/span&gt;" style="shape=umlActor;verticalLabelPosition=bottom;verticalAlign=top;html=1;outlineConnect=0;fontStyle=1;" parent="1" vertex="1">
          <mxGeometry x="-50" y="415" width="30" height="60" as="geometry" />
        </mxCell>
        <mxCell id="_vuAa1aMIuxWL2abwS94-10" value="Εμφάνισε" style="ellipse;shape=umlControl;whiteSpace=wrap;html=1;fontStyle=1;" parent="1" vertex="1">
          <mxGeometry x="380" y="10" width="70" height="80" as="geometry" />
        </mxCell>
        <mxCell id="_vuAa1aMIuxWL2abwS94-11" value="Οθόνη συμπλήρωσης στοιχείων ξενάγησης" style="shape=umlBoundary;whiteSpace=wrap;html=1;fontStyle=1;" parent="1" vertex="1">
          <mxGeometry x="212.88" y="90" width="103.56" height="90" as="geometry" />
        </mxCell>
        <mxCell id="_vuAa1aMIuxWL2abwS94-12" value="" style="endArrow=classic;html=1;rounded=0;entryX=-0.014;entryY=0.45;entryDx=0;entryDy=0;entryPerimeter=0;exitX=1.011;exitY=0.5;exitDx=0;exitDy=0;exitPerimeter=0;fontStyle=1;" parent="1" source="_vuAa1aMIuxWL2abwS94-5" target="_vuAa1aMIuxWL2abwS94-10" edge="1">
          <mxGeometry width="50" height="50" relative="1" as="geometry">
            <mxPoint x="428.94" y="80" as="sourcePoint" />
            <mxPoint x="328.94" y="230" as="targetPoint" />
          </mxGeometry>
        </mxCell>
        <mxCell id="_vuAa1aMIuxWL2abwS94-13" value="" style="endArrow=classic;html=1;rounded=0;exitX=0;exitY=0.663;exitDx=0;exitDy=0;exitPerimeter=0;entryX=0.846;entryY=0.113;entryDx=0;entryDy=0;entryPerimeter=0;fontStyle=1;" parent="1" source="_vuAa1aMIuxWL2abwS94-10" target="_vuAa1aMIuxWL2abwS94-11" edge="1">
          <mxGeometry width="50" height="50" relative="1" as="geometry">
            <mxPoint x="644.97" y="189.99999999999997" as="sourcePoint" />
            <mxPoint x="343.94" y="286.96" as="targetPoint" />
          </mxGeometry>
        </mxCell>
        <mxCell id="_vuAa1aMIuxWL2abwS94-14" value="" style="endArrow=classic;html=1;rounded=0;exitX=0.5;exitY=0.5;exitDx=0;exitDy=0;exitPerimeter=0;entryX=-0.01;entryY=0.5;entryDx=0;entryDy=0;entryPerimeter=0;fontStyle=1;" parent="1" source="_vuAa1aMIuxWL2abwS94-1" target="_vuAa1aMIuxWL2abwS94-11" edge="1">
          <mxGeometry width="50" height="50" relative="1" as="geometry">
            <mxPoint x="260" y="280" as="sourcePoint" />
            <mxPoint x="310" y="230" as="targetPoint" />
          </mxGeometry>
        </mxCell>
        <mxCell id="_vuAa1aMIuxWL2abwS94-15" value="&lt;font style=&quot;font-size: 12px;&quot;&gt;Συμπλήρωση Στοιχείων&amp;nbsp;&lt;br&gt;Ξενάγησης και Επιβεβαίωση&lt;br&gt;&lt;/font&gt;" style="edgeLabel;html=1;align=center;verticalAlign=middle;resizable=0;points=[];fontStyle=1;" parent="_vuAa1aMIuxWL2abwS94-14" vertex="1" connectable="0">
          <mxGeometry x="0.32" y="1" relative="1" as="geometry">
            <mxPoint x="-12" y="40" as="offset" />
          </mxGeometry>
        </mxCell>
        <mxCell id="_vuAa1aMIuxWL2abwS94-16" value="Φόρτωσε" style="ellipse;shape=umlControl;whiteSpace=wrap;html=1;fontStyle=1;" parent="1" vertex="1">
          <mxGeometry x="505" y="230" width="70" height="80" as="geometry" />
        </mxCell>
        <mxCell id="_vuAa1aMIuxWL2abwS94-17" value="Οθόνη επιλογής ετικετών/tags" style="shape=umlBoundary;whiteSpace=wrap;html=1;rounded=1;labelBackgroundColor=none;fontStyle=1;labelBorderColor=none;" parent="1" vertex="1">
          <mxGeometry x="230" y="310" width="106.06" height="95" as="geometry" />
        </mxCell>
        <mxCell id="_vuAa1aMIuxWL2abwS94-19" value="" style="endArrow=classic;html=1;rounded=0;fontStyle=1;" parent="1" source="_vuAa1aMIuxWL2abwS94-16" target="-2h78D8NwC2mSWmw_4OS-2" edge="1">
          <mxGeometry width="50" height="50" relative="1" as="geometry">
            <mxPoint x="515.94" y="263" as="sourcePoint" />
            <mxPoint x="560" y="260" as="targetPoint" />
          </mxGeometry>
        </mxCell>
        <mxCell id="_vuAa1aMIuxWL2abwS94-21" value="" style="endArrow=classic;html=1;rounded=0;exitX=0.5;exitY=0.5;exitDx=0;exitDy=0;exitPerimeter=0;entryX=0.02;entryY=0.54;entryDx=0;entryDy=0;entryPerimeter=0;fontStyle=1;" parent="1" source="_vuAa1aMIuxWL2abwS94-1" target="_vuAa1aMIuxWL2abwS94-17" edge="1">
          <mxGeometry width="50" height="50" relative="1" as="geometry">
            <mxPoint x="260" y="370" as="sourcePoint" />
            <mxPoint x="310" y="320" as="targetPoint" />
          </mxGeometry>
        </mxCell>
        <mxCell id="_vuAa1aMIuxWL2abwS94-22" value="&lt;font style=&quot;font-size: 12px;&quot;&gt;Επιλογή Ετικετών/Tags&amp;nbsp;&lt;br&gt;και Επιβεβαίωση&lt;br&gt;&lt;/font&gt;" style="edgeLabel;html=1;align=center;verticalAlign=middle;resizable=0;points=[];fontStyle=1;" parent="_vuAa1aMIuxWL2abwS94-21" vertex="1" connectable="0">
          <mxGeometry x="0.1405" y="4" relative="1" as="geometry">
            <mxPoint as="offset" />
          </mxGeometry>
        </mxCell>
        <mxCell id="_vuAa1aMIuxWL2abwS94-25" value="Οθόνη ανάρτησης εικόνων" style="shape=umlBoundary;whiteSpace=wrap;html=1;rounded=1;labelBackgroundColor=none;fontStyle=1;labelBorderColor=none;" parent="1" vertex="1">
          <mxGeometry x="150" y="460" width="100" height="80" as="geometry" />
        </mxCell>
        <mxCell id="_vuAa1aMIuxWL2abwS94-26" value="Εμφάνισε" style="ellipse;shape=umlControl;whiteSpace=wrap;html=1;rounded=1;labelBackgroundColor=none;fontStyle=1;labelBorderColor=none;" parent="1" vertex="1">
          <mxGeometry x="425.6600000000001" y="350" width="60" height="70" as="geometry" />
        </mxCell>
        <mxCell id="_vuAa1aMIuxWL2abwS94-27" value="" style="endArrow=classic;html=1;rounded=1;exitX=0.013;exitY=0.633;exitDx=0;exitDy=0;exitPerimeter=0;entryX=0.717;entryY=-0.002;entryDx=0;entryDy=0;entryPerimeter=0;labelBackgroundColor=none;fontColor=default;fontStyle=1;labelBorderColor=none;" parent="1" source="_vuAa1aMIuxWL2abwS94-26" target="_vuAa1aMIuxWL2abwS94-25" edge="1">
          <mxGeometry width="50" height="50" relative="1" as="geometry">
            <mxPoint x="443" y="577.02" as="sourcePoint" />
            <mxPoint x="365" y="435" as="targetPoint" />
            <Array as="points" />
          </mxGeometry>
        </mxCell>
        <mxCell id="_vuAa1aMIuxWL2abwS94-28" value="Μέγεθος αρχείων εντός ορίων?" style="ellipse;shape=umlControl;whiteSpace=wrap;html=1;rounded=1;labelBackgroundColor=none;fontStyle=1;labelBorderColor=none;" parent="1" vertex="1">
          <mxGeometry x="316.44" y="520" width="80" height="90" as="geometry" />
        </mxCell>
        <mxCell id="_vuAa1aMIuxWL2abwS94-31" value="" style="endArrow=classic;html=1;rounded=1;labelBackgroundColor=none;fontColor=default;fontStyle=1;labelBorderColor=none;exitX=0.669;exitY=0.998;exitDx=0;exitDy=0;exitPerimeter=0;" parent="1" source="_vuAa1aMIuxWL2abwS94-28" edge="1">
          <mxGeometry width="50" height="50" relative="1" as="geometry">
            <mxPoint x="395" y="739" as="sourcePoint" />
            <mxPoint x="406" y="641" as="targetPoint" />
            <Array as="points" />
          </mxGeometry>
        </mxCell>
        <mxCell id="_vuAa1aMIuxWL2abwS94-78" value="&lt;font style=&quot;font-size: 12px;&quot;&gt;Ναι&lt;/font&gt;" style="edgeLabel;html=1;align=center;verticalAlign=middle;resizable=0;points=[];fontStyle=1;" parent="_vuAa1aMIuxWL2abwS94-31" vertex="1" connectable="0">
          <mxGeometry x="-0.5145" y="1" relative="1" as="geometry">
            <mxPoint x="5" y="4" as="offset" />
          </mxGeometry>
        </mxCell>
        <mxCell id="_vuAa1aMIuxWL2abwS94-32" value="Εμφάνισε" style="ellipse;shape=umlControl;whiteSpace=wrap;html=1;rounded=1;labelBackgroundColor=none;fontStyle=1;labelBorderColor=none;strokeColor=#FF0000;strokeWidth=2;" parent="1" vertex="1">
          <mxGeometry x="490.00000000000006" y="60" width="70" height="80" as="geometry" />
        </mxCell>
        <mxCell id="_vuAa1aMIuxWL2abwS94-36" value="" style="endArrow=classic;html=1;rounded=0;fontStyle=1;entryX=0;entryY=0.429;entryDx=0;entryDy=0;entryPerimeter=0;" parent="1" source="_vuAa1aMIuxWL2abwS94-17" target="_vuAa1aMIuxWL2abwS94-26" edge="1">
          <mxGeometry width="50" height="50" relative="1" as="geometry">
            <mxPoint x="511.74000000000024" y="369.92499999999995" as="sourcePoint" />
            <mxPoint x="690" y="430" as="targetPoint" />
          </mxGeometry>
        </mxCell>
        <mxCell id="_vuAa1aMIuxWL2abwS94-38" value="" style="endArrow=classic;html=1;rounded=0;exitX=0.5;exitY=0.5;exitDx=0;exitDy=0;exitPerimeter=0;entryX=-0.01;entryY=0.532;entryDx=0;entryDy=0;entryPerimeter=0;fontStyle=1;" parent="1" source="_vuAa1aMIuxWL2abwS94-1" target="_vuAa1aMIuxWL2abwS94-25" edge="1">
          <mxGeometry width="50" height="50" relative="1" as="geometry">
            <mxPoint x="260" y="370" as="sourcePoint" />
            <mxPoint x="310" y="320" as="targetPoint" />
          </mxGeometry>
        </mxCell>
        <mxCell id="_vuAa1aMIuxWL2abwS94-39" value="&lt;font style=&quot;font-size: 12px;&quot;&gt;Ανέβασμα Εικόνων&amp;nbsp;&lt;br&gt;και Επιβεβαίωση&lt;br&gt;&lt;/font&gt;" style="edgeLabel;html=1;align=center;verticalAlign=middle;resizable=0;points=[];fontStyle=1;" parent="_vuAa1aMIuxWL2abwS94-38" vertex="1" connectable="0">
          <mxGeometry x="0.1495" y="-1" relative="1" as="geometry">
            <mxPoint as="offset" />
          </mxGeometry>
        </mxCell>
        <mxCell id="_vuAa1aMIuxWL2abwS94-40" value="Εμφάνισε" style="ellipse;shape=umlControl;whiteSpace=wrap;html=1;fontStyle=1;" parent="1" vertex="1">
          <mxGeometry x="380.00000000000006" y="640" width="70" height="80" as="geometry" />
        </mxCell>
        <mxCell id="_vuAa1aMIuxWL2abwS94-41" value="Οθόνη Εισαγωγής Τρόπου Πληρωμής" style="shape=umlBoundary;whiteSpace=wrap;html=1;fontStyle=1;" parent="1" vertex="1">
          <mxGeometry x="140" y="630" width="100" height="80" as="geometry" />
        </mxCell>
        <mxCell id="_vuAa1aMIuxWL2abwS94-42" value="" style="endArrow=classic;html=1;rounded=0;exitX=-0.019;exitY=0.613;exitDx=0;exitDy=0;exitPerimeter=0;entryX=0.96;entryY=0.225;entryDx=0;entryDy=0;entryPerimeter=0;fontStyle=1;" parent="1" source="_vuAa1aMIuxWL2abwS94-40" edge="1">
          <mxGeometry width="50" height="50" relative="1" as="geometry">
            <mxPoint x="635" y="865" as="sourcePoint" />
            <mxPoint x="235.99999999999955" y="667.9999999999998" as="targetPoint" />
          </mxGeometry>
        </mxCell>
        <mxCell id="_vuAa1aMIuxWL2abwS94-45" value="Στοιχεία Πληρωμής Έγκυρα?" style="ellipse;shape=umlControl;whiteSpace=wrap;html=1;fontStyle=1;" parent="1" vertex="1">
          <mxGeometry x="262.5" y="730" width="73.56" height="80" as="geometry" />
        </mxCell>
        <mxCell id="_vuAa1aMIuxWL2abwS94-46" value="" style="endArrow=classic;html=1;rounded=0;fontStyle=1;exitX=0.497;exitY=0.997;exitDx=0;exitDy=0;exitPerimeter=0;entryX=0.038;entryY=0.5;entryDx=0;entryDy=0;entryPerimeter=0;" parent="1" source="_vuAa1aMIuxWL2abwS94-41" target="_vuAa1aMIuxWL2abwS94-45" edge="1">
          <mxGeometry width="50" height="50" relative="1" as="geometry">
            <mxPoint x="257.35064000000057" y="849" as="sourcePoint" />
            <mxPoint x="460" y="859" as="targetPoint" />
          </mxGeometry>
        </mxCell>
        <mxCell id="_vuAa1aMIuxWL2abwS94-47" value="Καταχώρησε" style="ellipse;shape=umlControl;whiteSpace=wrap;html=1;fontStyle=1;" parent="1" vertex="1">
          <mxGeometry x="563.9400000000002" y="760" width="70" height="79.5" as="geometry" />
        </mxCell>
        <mxCell id="_vuAa1aMIuxWL2abwS94-48" value="" style="endArrow=classic;html=1;rounded=0;fontStyle=1;exitX=0.978;exitY=0.658;exitDx=0;exitDy=0;exitPerimeter=0;entryX=-0.009;entryY=0.506;entryDx=0;entryDy=0;entryPerimeter=0;" parent="1" source="_vuAa1aMIuxWL2abwS94-45" target="Hi-JgWP9omeODkLNu22M-4" edge="1">
          <mxGeometry width="50" height="50" relative="1" as="geometry">
            <mxPoint x="730" y="1020" as="sourcePoint" />
            <mxPoint x="410" y="790" as="targetPoint" />
          </mxGeometry>
        </mxCell>
        <mxCell id="_vuAa1aMIuxWL2abwS94-59" value="&lt;font style=&quot;font-size: 12px;&quot;&gt;Ναι&lt;/font&gt;" style="edgeLabel;html=1;align=center;verticalAlign=middle;resizable=0;points=[];fontStyle=1;" parent="_vuAa1aMIuxWL2abwS94-48" vertex="1" connectable="0">
          <mxGeometry x="-0.187" y="3" relative="1" as="geometry">
            <mxPoint as="offset" />
          </mxGeometry>
        </mxCell>
        <mxCell id="_vuAa1aMIuxWL2abwS94-49" value="Ξενάγηση" style="ellipse;shape=umlEntity;whiteSpace=wrap;html=1;fontFamily=Helvetica;fontSize=11;fontColor=default;fontStyle=1;" parent="1" vertex="1">
          <mxGeometry x="680.0000000000001" y="790" width="70" height="65" as="geometry" />
        </mxCell>
        <mxCell id="_vuAa1aMIuxWL2abwS94-50" value="" style="endArrow=classic;html=1;rounded=0;fontStyle=1;entryX=0.93;entryY=0.361;entryDx=0;entryDy=0;entryPerimeter=0;exitX=0.148;exitY=0.883;exitDx=0;exitDy=0;exitPerimeter=0;" parent="1" source="_vuAa1aMIuxWL2abwS94-47" target="6x-jS217EGRno-RkUnH8-10" edge="1">
          <mxGeometry width="50" height="50" relative="1" as="geometry">
            <mxPoint x="575.3499999999999" y="893.424" as="sourcePoint" />
            <mxPoint x="482.48799999999983" y="876" as="targetPoint" />
          </mxGeometry>
        </mxCell>
        <mxCell id="_vuAa1aMIuxWL2abwS94-53" value="Εμφάνισε" style="ellipse;shape=umlControl;whiteSpace=wrap;html=1;rounded=1;labelBackgroundColor=none;fontStyle=1;labelBorderColor=none;" parent="1" vertex="1">
          <mxGeometry x="550" y="1060" width="70" height="80" as="geometry" />
        </mxCell>
        <mxCell id="_vuAa1aMIuxWL2abwS94-56" value="" style="endArrow=classic;html=1;rounded=0;fontStyle=1;entryX=0.963;entryY=0.346;entryDx=0;entryDy=0;entryPerimeter=0;exitX=0.441;exitY=1.018;exitDx=0;exitDy=0;exitPerimeter=0;" parent="1" source="9z0R-OL_Knqyuf6gc-zT-4" target="_vuAa1aMIuxWL2abwS94-53" edge="1">
          <mxGeometry width="50" height="50" relative="1" as="geometry">
            <mxPoint x="622.0160000000001" y="1150.9699999999998" as="sourcePoint" />
            <mxPoint x="1149.7806896551724" y="880" as="targetPoint" />
          </mxGeometry>
        </mxCell>
        <mxCell id="_vuAa1aMIuxWL2abwS94-61" value="" style="endArrow=classic;html=1;rounded=0;exitX=0.972;exitY=0.43;exitDx=0;exitDy=0;exitPerimeter=0;entryX=0.217;entryY=0.903;entryDx=0;entryDy=0;entryPerimeter=0;fontStyle=1;strokeWidth=2;strokeColor=#FF0000;" parent="1" source="1RGfCUsxJI8cOVG7FC86-6" target="_vuAa1aMIuxWL2abwS94-32" edge="1">
          <mxGeometry width="50" height="50" relative="1" as="geometry">
            <mxPoint x="649.0100000000002" y="436" as="sourcePoint" />
            <mxPoint x="438.94" y="330" as="targetPoint" />
          </mxGeometry>
        </mxCell>
        <mxCell id="_vuAa1aMIuxWL2abwS94-66" value="&lt;font style=&quot;font-size: 12px;&quot;&gt;Όχι&lt;/font&gt;" style="edgeLabel;html=1;align=center;verticalAlign=middle;resizable=0;points=[];fontStyle=1;" parent="_vuAa1aMIuxWL2abwS94-61" vertex="1" connectable="0">
          <mxGeometry x="-0.4736" y="-3" relative="1" as="geometry">
            <mxPoint x="-1" y="2" as="offset" />
          </mxGeometry>
        </mxCell>
        <mxCell id="_vuAa1aMIuxWL2abwS94-64" value="Μήνυμα Ελλιπών Στοιχείων" style="shape=umlBoundary;whiteSpace=wrap;html=1;rounded=1;labelBackgroundColor=none;fontStyle=1;labelBorderColor=none;strokeColor=#FF0000;strokeWidth=2;fontColor=#000000;" parent="1" vertex="1">
          <mxGeometry x="624.96" y="60" width="100" height="80" as="geometry" />
        </mxCell>
        <mxCell id="_vuAa1aMIuxWL2abwS94-65" value="" style="endArrow=classic;html=1;rounded=0;fontStyle=1;strokeWidth=2;strokeColor=#FF0000;entryX=0.003;entryY=0.532;entryDx=0;entryDy=0;entryPerimeter=0;" parent="1" source="_vuAa1aMIuxWL2abwS94-32" target="_vuAa1aMIuxWL2abwS94-64" edge="1">
          <mxGeometry width="50" height="50" relative="1" as="geometry">
            <mxPoint x="388.94" y="490" as="sourcePoint" />
            <mxPoint x="438.94" y="440" as="targetPoint" />
          </mxGeometry>
        </mxCell>
        <mxCell id="_vuAa1aMIuxWL2abwS94-69" value="Εμφάνισε&amp;nbsp;" style="ellipse;shape=umlControl;whiteSpace=wrap;html=1;fontStyle=1;strokeColor=#FF0000;strokeWidth=2;" parent="1" vertex="1">
          <mxGeometry x="376.1" y="440" width="61.06" height="65" as="geometry" />
        </mxCell>
        <mxCell id="_vuAa1aMIuxWL2abwS94-72" value="" style="endArrow=classic;html=1;rounded=0;exitX=0.882;exitY=0.302;exitDx=0;exitDy=0;exitPerimeter=0;fontStyle=1;strokeWidth=2;strokeColor=#FF0000;" parent="1" source="_vuAa1aMIuxWL2abwS94-28" target="_vuAa1aMIuxWL2abwS94-69" edge="1">
          <mxGeometry width="50" height="50" relative="1" as="geometry">
            <mxPoint x="413" y="599" as="sourcePoint" />
            <mxPoint x="690" y="630" as="targetPoint" />
          </mxGeometry>
        </mxCell>
        <mxCell id="_vuAa1aMIuxWL2abwS94-73" value="&lt;font style=&quot;font-size: 12px;&quot;&gt;Όχι&lt;/font&gt;" style="edgeLabel;html=1;align=center;verticalAlign=middle;resizable=0;points=[];fontStyle=1;" parent="_vuAa1aMIuxWL2abwS94-72" vertex="1" connectable="0">
          <mxGeometry x="0.3188" y="4" relative="1" as="geometry">
            <mxPoint x="-5" y="11" as="offset" />
          </mxGeometry>
        </mxCell>
        <mxCell id="_vuAa1aMIuxWL2abwS94-83" value="Εμφάνισε&amp;nbsp;" style="ellipse;shape=umlControl;whiteSpace=wrap;html=1;fontStyle=1;strokeColor=#FF0000;strokeWidth=2;" parent="1" vertex="1">
          <mxGeometry x="80" y="749.75" width="60" height="65" as="geometry" />
        </mxCell>
        <mxCell id="_vuAa1aMIuxWL2abwS94-86" value="" style="endArrow=classic;html=1;rounded=0;fontStyle=1;strokeWidth=2;strokeColor=#FF0000;exitX=-0.002;exitY=0.71;exitDx=0;exitDy=0;exitPerimeter=0;entryX=1.025;entryY=0.538;entryDx=0;entryDy=0;entryPerimeter=0;" parent="1" source="_vuAa1aMIuxWL2abwS94-45" target="_vuAa1aMIuxWL2abwS94-83" edge="1">
          <mxGeometry width="50" height="50" relative="1" as="geometry">
            <mxPoint x="262.49952" y="792.3199999999999" as="sourcePoint" />
            <mxPoint x="121.42999999999998" y="834.9949999999999" as="targetPoint" />
            <Array as="points" />
          </mxGeometry>
        </mxCell>
        <mxCell id="_vuAa1aMIuxWL2abwS94-87" value="&lt;span style=&quot;font-size: 12px;&quot;&gt;Όχι&lt;/span&gt;" style="edgeLabel;html=1;align=center;verticalAlign=middle;resizable=0;points=[];fontStyle=1;" parent="_vuAa1aMIuxWL2abwS94-86" vertex="1" connectable="0">
          <mxGeometry x="-0.4261" y="1" relative="1" as="geometry">
            <mxPoint x="-24" y="3" as="offset" />
          </mxGeometry>
        </mxCell>
        <mxCell id="AZ5zpPVhn2oC35pCDIvC-1" value="Εμφάνισε" style="ellipse;shape=umlControl;whiteSpace=wrap;html=1;rounded=1;labelBackgroundColor=none;fontStyle=1;labelBorderColor=none;" parent="1" vertex="1">
          <mxGeometry x="320" y="230" width="60" height="70" as="geometry" />
        </mxCell>
        <mxCell id="AZ5zpPVhn2oC35pCDIvC-3" value="" style="endArrow=classic;html=1;rounded=0;hachureGap=4;fontFamily=Architects Daughter;fontSource=https%3A%2F%2Ffonts.googleapis.com%2Fcss%3Ffamily%3DArchitects%2BDaughter;fontSize=16;exitX=0.125;exitY=0.852;exitDx=0;exitDy=0;exitPerimeter=0;fontStyle=1;entryX=0.786;entryY=0.084;entryDx=0;entryDy=0;entryPerimeter=0;" parent="1" source="AZ5zpPVhn2oC35pCDIvC-1" target="_vuAa1aMIuxWL2abwS94-17" edge="1">
          <mxGeometry width="50" height="50" relative="1" as="geometry">
            <mxPoint x="400" y="500" as="sourcePoint" />
            <mxPoint x="396.48" y="402" as="targetPoint" />
          </mxGeometry>
        </mxCell>
        <mxCell id="AZ5zpPVhn2oC35pCDIvC-4" value="" style="endArrow=classic;html=1;rounded=0;hachureGap=4;fontFamily=Architects Daughter;fontSource=https%3A%2F%2Ffonts.googleapis.com%2Fcss%3Ffamily%3DArchitects%2BDaughter;fontSize=16;exitX=-0.003;exitY=0.52;exitDx=0;exitDy=0;fontStyle=1;exitPerimeter=0;" parent="1" source="_vuAa1aMIuxWL2abwS94-16" target="AZ5zpPVhn2oC35pCDIvC-1" edge="1">
          <mxGeometry width="50" height="50" relative="1" as="geometry">
            <mxPoint x="401.44000000000005" y="420" as="sourcePoint" />
            <mxPoint x="450" y="450" as="targetPoint" />
          </mxGeometry>
        </mxCell>
        <mxCell id="-2h78D8NwC2mSWmw_4OS-2" value="&lt;font style=&quot;font-size: 12px;&quot;&gt;Ετικέτες/Tags&lt;/font&gt;" style="ellipse;shape=umlEntity;whiteSpace=wrap;html=1;fontFamily=Helvetica;fontSize=11;rounded=1;labelBackgroundColor=none;fontStyle=1;labelBorderColor=none;" parent="1" vertex="1">
          <mxGeometry x="633.94" y="190" width="80" height="80" as="geometry" />
        </mxCell>
        <mxCell id="6x-jS217EGRno-RkUnH8-2" value="Επιλέχθηκε Δημοσίευση?" style="ellipse;shape=umlControl;whiteSpace=wrap;html=1;fontStyle=1;" parent="1" vertex="1">
          <mxGeometry x="415.66" y="965" width="80" height="90" as="geometry" />
        </mxCell>
        <mxCell id="6x-jS217EGRno-RkUnH8-3" value="" style="endArrow=classic;html=1;rounded=0;exitX=0.003;exitY=0.75;exitDx=0;exitDy=0;exitPerimeter=0;entryX=0.763;entryY=0.026;entryDx=0;entryDy=0;entryPerimeter=0;" parent="1" source="6x-jS217EGRno-RkUnH8-10" target="1RGfCUsxJI8cOVG7FC86-42" edge="1">
          <mxGeometry width="50" height="50" relative="1" as="geometry">
            <mxPoint x="1058" y="680" as="sourcePoint" />
            <mxPoint x="988" y="700" as="targetPoint" />
          </mxGeometry>
        </mxCell>
        <mxCell id="6x-jS217EGRno-RkUnH8-4" value="" style="endArrow=classic;html=1;rounded=0;exitX=1.025;exitY=0.515;exitDx=0;exitDy=0;exitPerimeter=0;fontStyle=1;entryX=0.021;entryY=0.626;entryDx=0;entryDy=0;entryPerimeter=0;" parent="1" source="6x-jS217EGRno-RkUnH8-2" target="9z0R-OL_Knqyuf6gc-zT-4" edge="1">
          <mxGeometry width="50" height="50" relative="1" as="geometry">
            <mxPoint x="1082" y="629.01" as="sourcePoint" />
            <mxPoint x="1138" y="680" as="targetPoint" />
            <Array as="points" />
          </mxGeometry>
        </mxCell>
        <mxCell id="6x-jS217EGRno-RkUnH8-7" value="&lt;font style=&quot;font-size: 12px;&quot;&gt;Ναι&lt;/font&gt;" style="edgeLabel;html=1;align=center;verticalAlign=middle;resizable=0;points=[];fontStyle=1" parent="6x-jS217EGRno-RkUnH8-4" vertex="1" connectable="0">
          <mxGeometry x="-0.3318" y="-2" relative="1" as="geometry">
            <mxPoint x="18" y="-6" as="offset" />
          </mxGeometry>
        </mxCell>
        <mxCell id="6x-jS217EGRno-RkUnH8-10" value="Εμφάνισε&amp;nbsp;" style="ellipse;shape=umlControl;whiteSpace=wrap;html=1;rounded=1;labelBackgroundColor=none;fontStyle=1;labelBorderColor=none;" parent="1" vertex="1">
          <mxGeometry x="370" y="880" width="67.16" height="70" as="geometry" />
        </mxCell>
        <mxCell id="9z0R-OL_Knqyuf6gc-zT-3" value="" style="endArrow=classic;html=1;rounded=0;exitX=1.021;exitY=0.487;exitDx=0;exitDy=0;exitPerimeter=0;entryX=0.042;entryY=0.389;entryDx=0;entryDy=0;entryPerimeter=0;" parent="1" source="_vuAa1aMIuxWL2abwS94-47" target="_vuAa1aMIuxWL2abwS94-49" edge="1">
          <mxGeometry width="50" height="50" relative="1" as="geometry">
            <mxPoint x="828.94" y="1000.5" as="sourcePoint" />
            <mxPoint x="580" y="800" as="targetPoint" />
          </mxGeometry>
        </mxCell>
        <mxCell id="9z0R-OL_Knqyuf6gc-zT-4" value="Κάνε δημόσια" style="ellipse;shape=umlControl;whiteSpace=wrap;html=1;fontStyle=1;" parent="1" vertex="1">
          <mxGeometry x="613.9400000000002" y="920" width="66.06" height="70" as="geometry" />
        </mxCell>
        <mxCell id="1RGfCUsxJI8cOVG7FC86-6" value="Συμπλήρωση απαιτούμενων στοιχείων?" style="ellipse;shape=umlControl;whiteSpace=wrap;html=1;rounded=1;labelBackgroundColor=none;fontStyle=1;labelBorderColor=none;" parent="1" vertex="1">
          <mxGeometry x="370" y="130" width="90" height="100" as="geometry" />
        </mxCell>
        <mxCell id="1RGfCUsxJI8cOVG7FC86-7" value="" style="endArrow=classic;html=1;rounded=0;entryX=-0.054;entryY=0.614;entryDx=0;entryDy=0;entryPerimeter=0;" parent="1" source="_vuAa1aMIuxWL2abwS94-11" target="1RGfCUsxJI8cOVG7FC86-6" edge="1">
          <mxGeometry width="50" height="50" relative="1" as="geometry">
            <mxPoint x="493.2399999999998" y="199.19999999999982" as="sourcePoint" />
            <mxPoint x="680" y="260" as="targetPoint" />
          </mxGeometry>
        </mxCell>
        <mxCell id="1RGfCUsxJI8cOVG7FC86-9" value="" style="endArrow=classic;html=1;rounded=0;exitX=0.003;exitY=0.506;exitDx=0;exitDy=0;exitPerimeter=0;entryX=0.954;entryY=0.294;entryDx=0;entryDy=0;entryPerimeter=0;fontStyle=1;strokeWidth=2;strokeColor=#FF0000;" parent="1" source="_vuAa1aMIuxWL2abwS94-32" target="_vuAa1aMIuxWL2abwS94-11" edge="1">
          <mxGeometry width="50" height="50" relative="1" as="geometry">
            <mxPoint x="794" y="240" as="sourcePoint" />
            <mxPoint x="780" y="133" as="targetPoint" />
          </mxGeometry>
        </mxCell>
        <mxCell id="1RGfCUsxJI8cOVG7FC86-10" value="" style="endArrow=classic;html=1;rounded=0;exitX=0.92;exitY=0.894;exitDx=0;exitDy=0;exitPerimeter=0;" parent="1" source="1RGfCUsxJI8cOVG7FC86-6" target="_vuAa1aMIuxWL2abwS94-16" edge="1">
          <mxGeometry width="50" height="50" relative="1" as="geometry">
            <mxPoint x="400" y="380" as="sourcePoint" />
            <mxPoint x="450" y="330" as="targetPoint" />
          </mxGeometry>
        </mxCell>
        <mxCell id="1RGfCUsxJI8cOVG7FC86-11" value="&lt;b&gt;&lt;font style=&quot;font-size: 12px;&quot;&gt;Ναι&lt;/font&gt;&lt;/b&gt;" style="edgeLabel;html=1;align=center;verticalAlign=middle;resizable=0;points=[];" parent="1" vertex="1" connectable="0">
          <mxGeometry x="454.9996109096164" y="170.00459496520998" as="geometry">
            <mxPoint x="21" y="57" as="offset" />
          </mxGeometry>
        </mxCell>
        <mxCell id="1RGfCUsxJI8cOVG7FC86-21" value="" style="endArrow=classic;html=1;rounded=0;entryX=-0.012;entryY=0.489;entryDx=0;entryDy=0;entryPerimeter=0;" parent="1" source="_vuAa1aMIuxWL2abwS94-25" target="_vuAa1aMIuxWL2abwS94-28" edge="1">
          <mxGeometry width="50" height="50" relative="1" as="geometry">
            <mxPoint x="434.46000000000004" y="589" as="sourcePoint" />
            <mxPoint x="400" y="630" as="targetPoint" />
          </mxGeometry>
        </mxCell>
        <mxCell id="1RGfCUsxJI8cOVG7FC86-24" value="Μήνυμα Υπέρβασης Ορίου Μεγέθους Αρχείων" style="shape=umlBoundary;whiteSpace=wrap;html=1;rounded=1;labelBackgroundColor=none;fontStyle=1;labelBorderColor=none;strokeColor=#FF0000;strokeWidth=2;" parent="1" vertex="1">
          <mxGeometry x="530" y="432.5" width="100" height="80" as="geometry" />
        </mxCell>
        <mxCell id="1RGfCUsxJI8cOVG7FC86-26" value="" style="endArrow=classic;html=1;rounded=0;exitX=1.027;exitY=0.533;exitDx=0;exitDy=0;exitPerimeter=0;entryX=-0.031;entryY=0.465;entryDx=0;entryDy=0;entryPerimeter=0;strokeColor=#FF0000;strokeWidth=2;" parent="1" source="_vuAa1aMIuxWL2abwS94-69" target="1RGfCUsxJI8cOVG7FC86-24" edge="1">
          <mxGeometry width="50" height="50" relative="1" as="geometry">
            <mxPoint x="350" y="720" as="sourcePoint" />
            <mxPoint x="400" y="670" as="targetPoint" />
          </mxGeometry>
        </mxCell>
        <mxCell id="1RGfCUsxJI8cOVG7FC86-27" value="" style="endArrow=classic;html=1;rounded=0;exitX=-0.016;exitY=0.539;exitDx=0;exitDy=0;exitPerimeter=0;strokeColor=#FF0000;strokeWidth=2;entryX=0.963;entryY=0.259;entryDx=0;entryDy=0;entryPerimeter=0;" parent="1" source="_vuAa1aMIuxWL2abwS94-69" target="_vuAa1aMIuxWL2abwS94-25" edge="1">
          <mxGeometry width="50" height="50" relative="1" as="geometry">
            <mxPoint x="350" y="720" as="sourcePoint" />
            <mxPoint x="380" y="540" as="targetPoint" />
          </mxGeometry>
        </mxCell>
        <mxCell id="1RGfCUsxJI8cOVG7FC86-38" value="Μήνυμα Αποτυχίας Επαλήθευσης Στοιχείων ΠΛηρωμής" style="shape=umlBoundary;whiteSpace=wrap;html=1;fontStyle=1;strokeWidth=2;strokeColor=#FF0000;" parent="1" vertex="1">
          <mxGeometry x="180.00000000000006" y="830" width="110" height="90" as="geometry" />
        </mxCell>
        <mxCell id="1RGfCUsxJI8cOVG7FC86-39" value="" style="endArrow=classic;html=1;rounded=0;fontStyle=1;strokeWidth=2;strokeColor=#FF0000;exitX=0.692;exitY=0.099;exitDx=0;exitDy=0;exitPerimeter=0;entryX=0.304;entryY=0.85;entryDx=0;entryDy=0;entryPerimeter=0;" parent="1" source="_vuAa1aMIuxWL2abwS94-83" target="_vuAa1aMIuxWL2abwS94-41" edge="1">
          <mxGeometry width="50" height="50" relative="1" as="geometry">
            <mxPoint x="209" y="1116" as="sourcePoint" />
            <mxPoint x="241.99999999999955" y="687.52" as="targetPoint" />
          </mxGeometry>
        </mxCell>
        <mxCell id="1RGfCUsxJI8cOVG7FC86-42" value="Οθόνη για Δημοσίευση Ξενάγησης" style="shape=umlBoundary;whiteSpace=wrap;html=1;rounded=1;labelBackgroundColor=none;fontStyle=1;labelBorderColor=none;" parent="1" vertex="1">
          <mxGeometry x="80.00000000000006" y="975" width="100" height="80" as="geometry" />
        </mxCell>
        <mxCell id="1RGfCUsxJI8cOVG7FC86-44" value="" style="endArrow=classic;html=1;rounded=0;entryX=-0.036;entryY=0.441;entryDx=0;entryDy=0;entryPerimeter=0;exitX=0.935;exitY=0.9;exitDx=0;exitDy=0;exitPerimeter=0;strokeColor=#FF0000;strokeWidth=2;" parent="1" source="_vuAa1aMIuxWL2abwS94-83" target="1RGfCUsxJI8cOVG7FC86-38" edge="1">
          <mxGeometry width="50" height="50" relative="1" as="geometry">
            <mxPoint x="560" y="880" as="sourcePoint" />
            <mxPoint x="610" y="830" as="targetPoint" />
          </mxGeometry>
        </mxCell>
        <mxCell id="1RGfCUsxJI8cOVG7FC86-47" value="" style="endArrow=classic;html=1;rounded=0;exitX=1.026;exitY=0.458;exitDx=0;exitDy=0;exitPerimeter=0;" parent="1" source="1RGfCUsxJI8cOVG7FC86-42" edge="1">
          <mxGeometry width="50" height="50" relative="1" as="geometry">
            <mxPoint x="550" y="1040" as="sourcePoint" />
            <mxPoint x="420" y="1012" as="targetPoint" />
          </mxGeometry>
        </mxCell>
        <mxCell id="1RGfCUsxJI8cOVG7FC86-49" value="" style="endArrow=classic;html=1;rounded=0;exitX=0.5;exitY=0.5;exitDx=0;exitDy=0;exitPerimeter=0;entryX=-0.013;entryY=0.517;entryDx=0;entryDy=0;entryPerimeter=0;" parent="1" source="_vuAa1aMIuxWL2abwS94-1" target="1RGfCUsxJI8cOVG7FC86-42" edge="1">
          <mxGeometry width="50" height="50" relative="1" as="geometry">
            <mxPoint x="540" y="810" as="sourcePoint" />
            <mxPoint x="590" y="760" as="targetPoint" />
          </mxGeometry>
        </mxCell>
        <mxCell id="1RGfCUsxJI8cOVG7FC86-51" value="&lt;font style=&quot;font-size: 12px;&quot;&gt;&lt;b&gt;Επιλογή Δημοσίευσης/Αποθήκευσης&lt;br&gt;&lt;/b&gt;&lt;/font&gt;" style="edgeLabel;html=1;align=center;verticalAlign=middle;resizable=0;points=[];" parent="1RGfCUsxJI8cOVG7FC86-49" vertex="1" connectable="0">
          <mxGeometry x="0.5592" y="-2" relative="1" as="geometry">
            <mxPoint as="offset" />
          </mxGeometry>
        </mxCell>
        <mxCell id="1RGfCUsxJI8cOVG7FC86-58" value="" style="endArrow=classic;html=1;rounded=0;exitX=0.471;exitY=0.137;exitDx=0;exitDy=0;exitPerimeter=0;entryX=0.5;entryY=1;entryDx=0;entryDy=0;" parent="1" source="9z0R-OL_Knqyuf6gc-zT-4" target="_vuAa1aMIuxWL2abwS94-49" edge="1">
          <mxGeometry width="50" height="50" relative="1" as="geometry">
            <mxPoint x="480" y="1020" as="sourcePoint" />
            <mxPoint x="658" y="810" as="targetPoint" />
          </mxGeometry>
        </mxCell>
        <mxCell id="1RGfCUsxJI8cOVG7FC86-59" value="" style="endArrow=classic;html=1;rounded=0;exitX=0.871;exitY=0.963;exitDx=0;exitDy=0;exitPerimeter=0;entryX=0.034;entryY=0.471;entryDx=0;entryDy=0;entryPerimeter=0;strokeWidth=2;strokeColor=#FF0000;" parent="1" source="6x-jS217EGRno-RkUnH8-2" target="_vuAa1aMIuxWL2abwS94-53" edge="1">
          <mxGeometry width="50" height="50" relative="1" as="geometry">
            <mxPoint x="305.95388" y="1217.9699999999998" as="sourcePoint" />
            <mxPoint x="523.16" y="1195" as="targetPoint" />
          </mxGeometry>
        </mxCell>
        <mxCell id="1RGfCUsxJI8cOVG7FC86-64" value="&lt;font style=&quot;font-size: 12px;&quot;&gt;Οχι&lt;/font&gt;" style="edgeLabel;html=1;align=center;verticalAlign=middle;resizable=0;points=[];fontStyle=1" parent="1" vertex="1" connectable="0">
          <mxGeometry x="674.9643335942687" y="1039.9975792233045" as="geometry">
            <mxPoint x="-160" y="44" as="offset" />
          </mxGeometry>
        </mxCell>
        <mxCell id="1RGfCUsxJI8cOVG7FC86-65" value="" style="endArrow=classic;html=1;rounded=0;exitX=-0.014;exitY=0.736;exitDx=0;exitDy=0;exitPerimeter=0;entryX=-0.03;entryY=0.382;entryDx=0;entryDy=0;entryPerimeter=0;" parent="1" source="_vuAa1aMIuxWL2abwS94-53" target="_vuAa1aMIuxWL2abwS94-5" edge="1">
          <mxGeometry width="50" height="50" relative="1" as="geometry">
            <mxPoint x="460" y="810" as="sourcePoint" />
            <mxPoint x="510" y="760" as="targetPoint" />
            <Array as="points">
              <mxPoint x="-120" y="1120" />
              <mxPoint x="-120" y="41" />
            </Array>
          </mxGeometry>
        </mxCell>
        <mxCell id="8Jc3yiF3LLENBDn-qC5v-2" value="&lt;span style=&quot;font-size: 12px;&quot;&gt;Αρχεία του χειριστή&lt;/span&gt;" style="ellipse;shape=umlEntity;whiteSpace=wrap;html=1;fontFamily=Helvetica;fontSize=11;rounded=1;labelBackgroundColor=none;fontStyle=1;labelBorderColor=none;" parent="1" vertex="1">
          <mxGeometry x="575" y="560" width="80" height="80" as="geometry" />
        </mxCell>
        <mxCell id="8Jc3yiF3LLENBDn-qC5v-3" value="" style="endArrow=classic;html=1;rounded=0;entryX=0;entryY=0.5;entryDx=0;entryDy=0;exitX=1.015;exitY=0.547;exitDx=0;exitDy=0;exitPerimeter=0;endFill=1;" parent="1" source="_vuAa1aMIuxWL2abwS94-28" target="8Jc3yiF3LLENBDn-qC5v-2" edge="1">
          <mxGeometry width="50" height="50" relative="1" as="geometry">
            <mxPoint x="580" y="600" as="sourcePoint" />
            <mxPoint x="630" y="550" as="targetPoint" />
          </mxGeometry>
        </mxCell>
        <mxCell id="_vuAa1aMIuxWL2abwS94-43" value="&lt;font style=&quot;font-size: 12px;&quot;&gt;Εισαγωγή Τραπεζικών Στοιχείων&lt;br&gt;και Επιβεβαίωση&lt;br&gt;&lt;/font&gt;" style="endArrow=classic;html=1;rounded=0;exitX=0.5;exitY=0.5;exitDx=0;exitDy=0;exitPerimeter=0;entryX=-0.04;entryY=0.55;entryDx=0;entryDy=0;entryPerimeter=0;fontStyle=1;" parent="1" source="_vuAa1aMIuxWL2abwS94-1" target="_vuAa1aMIuxWL2abwS94-41" edge="1">
          <mxGeometry x="0.4343" y="15" width="50" height="50" relative="1" as="geometry">
            <mxPoint x="260" y="580" as="sourcePoint" />
            <mxPoint x="310" y="530" as="targetPoint" />
            <mxPoint as="offset" />
          </mxGeometry>
        </mxCell>
        <mxCell id="jrBZ1G8P9azvylI9kM35-1" value="" style="endArrow=classic;html=1;rounded=0;entryX=0.5;entryY=1;entryDx=0;entryDy=0;exitX=0.704;exitY=0.172;exitDx=0;exitDy=0;exitPerimeter=0;" parent="1" source="Hi-JgWP9omeODkLNu22M-4" target="8Jc3yiF3LLENBDn-qC5v-2" edge="1">
          <mxGeometry width="50" height="50" relative="1" as="geometry">
            <mxPoint x="510" y="750" as="sourcePoint" />
            <mxPoint x="520" y="690" as="targetPoint" />
          </mxGeometry>
        </mxCell>
        <mxCell id="Hi-JgWP9omeODkLNu22M-3" value="" style="endArrow=classic;html=1;rounded=0;exitX=1.015;exitY=0.573;exitDx=0;exitDy=0;exitPerimeter=0;entryX=-0.021;entryY=0.575;entryDx=0;entryDy=0;entryPerimeter=0;" edge="1" parent="1" source="Hi-JgWP9omeODkLNu22M-4" target="_vuAa1aMIuxWL2abwS94-47">
          <mxGeometry width="50" height="50" relative="1" as="geometry">
            <mxPoint x="490" y="830" as="sourcePoint" />
            <mxPoint x="581.7199999999998" y="857.0925" as="targetPoint" />
          </mxGeometry>
        </mxCell>
        <mxCell id="Hi-JgWP9omeODkLNu22M-4" value="Αποθήκευσε" style="ellipse;shape=umlControl;whiteSpace=wrap;html=1;fontStyle=1;" vertex="1" parent="1">
          <mxGeometry x="420.6600000000001" y="749.75" width="70" height="79.5" as="geometry" />
        </mxCell>
      </root>
    </mxGraphModel>
  </diagram>
</mxfile>
